<?xml version="1.0" standalone="no"?>
<!DOCTYPE svg PUBLIC "-//W3C//DTD SVG 20010904//EN"
 "http://www.w3.org/TR/2001/REC-SVG-20010904/DTD/svg10.dtd">
<svg version="1.0" xmlns="http://www.w3.org/2000/svg"
 width="800.000000pt" height="800.000000pt" viewBox="0 0 800.000000 800.000000"
 preserveAspectRatio="xMidYMid meet">
<metadata>
Created by potrace 1.14, written by Peter Selinger 2001-2017
</metadata>
<g transform="translate(0.000000,800.000000) scale(0.100000,-0.100000)"
fill="#000000" stroke="none">
<path d="M5929 6468 c-30 -22 -72 -57 -94 -78 -22 -22 -64 -52 -93 -68 -66
-36 -139 -105 -209 -198 -30 -41 -86 -97 -132 -132 -44 -34 -108 -98 -145
-144 -38 -47 -100 -108 -145 -143 -43 -33 -101 -87 -127 -120 -56 -68 -113
-125 -208 -208 -36 -33 -86 -87 -111 -121 -26 -36 -76 -87 -118 -119 -41 -31
-111 -100 -156 -152 -45 -53 -100 -107 -121 -120 -37 -24 -107 -91 -236 -226
-33 -35 -94 -96 -136 -134 -41 -39 -92 -94 -112 -123 -21 -28 -58 -67 -84 -86
-58 -42 -166 -155 -209 -218 -18 -26 -51 -61 -75 -78 -75 -53 -150 -113 -227
-182 -42 -38 -82 -68 -90 -68 -7 0 -34 22 -60 49 -49 52 -93 82 -194 133 -79
40 -137 87 -173 141 -56 83 -97 128 -152 166 -70 48 -115 92 -154 151 -43 63
-76 97 -128 132 -65 45 -117 95 -160 158 -41 60 -100 117 -172 167 -25 17 -65
55 -87 85 -85 110 -104 130 -179 186 -42 31 -91 77 -109 102 -66 90 -106 132
-178 185 -56 41 -86 73 -128 137 -77 117 -129 163 -203 178 -77 16 -149 53
-196 101 -57 57 -69 46 -103 -93 l-27 -113 1 -1910 c1 -1239 -2 -1954 -9
-2034 l-10 -124 37 -55 c21 -30 47 -61 58 -68 35 -23 237 -67 305 -67 36 0
533 7 1105 16 572 8 1603 18 2290 22 1018 5 1270 9 1360 21 165 22 160 20 201
74 l38 49 5 1323 c3 728 6 1823 6 2433 l0 1110 -39 47 c-22 26 -45 49 -52 52
-6 2 -36 -14 -65 -36z"/>
</g>
</svg>
